


<svg version="1.0" xmlns="http://www.w3.org/2000/svg"
 width="4118.000000pt" height="1281.000000pt" viewBox="0 0 4118.000000 1281.000000"
 preserveAspectRatio="xMidYMid meet">

<g transform="translate(0.000000,1281.000000) scale(0.100000,-0.100000)"
fill="#000000" stroke="none">
<path d="M0 6405 l0 -6405 20590 0 20590 0 0 6405 0 6405 -20590 0 -20590 0 0
-6405z m6602 3930 c200 -69 358 -230 424 -431 26 -78 29 -103 29 -209 0 -106
-3 -131 -29 -209 -67 -203 -225 -363 -429 -433 -73 -25 -96 -28 -212 -28 -144
0 -212 16 -330 78 -86 45 -220 182 -268 274 -103 198 -103 438 0 636 57 109
183 232 293 285 124 60 183 72 325 68 97 -3 135 -9 197 -31z m-1559 -1111 c57
-19 131 -95 146 -150 27 -96 -3 -203 -72 -260 -33 -27 -230 -142 -692 -404
-377 -214 -502 -314 -569 -452 -64 -135 -66 -159 -77 -908 -14 -933 -7 -1763
14 -1851 23 -98 58 -158 131 -226 88 -83 197 -153 621 -400 198 -116 402 -236
453 -267 52 -31 125 -74 163 -96 l69 -39 2 1617 3 1617 27 98 c120 433 464
759 895 846 125 26 314 28 433 5 481 -91 850 -466 935 -948 13 -77 15 -286 15
-1657 0 -863 2 -1569 5 -1569 18 0 1055 599 1158 669 177 121 233 195 262 352
14 68 18 205 25 739 12 934 12 1611 -1 1731 -20 201 -61 301 -169 409 -78 78
-192 154 -485 325 -440 256 -656 386 -689 415 -108 95 -99 285 17 370 87 64
189 65 290 4 34 -20 247 -145 472 -277 478 -280 568 -335 692 -428 224 -169
312 -321 355 -614 16 -110 14 -2234 -3 -2515 -16 -283 -58 -443 -155 -592
-119 -184 -274 -301 -785 -591 -140 -79 -364 -207 -499 -284 -713 -408 -697
-400 -801 -370 -64 19 -123 70 -154 132 -20 39 -20 77 -25 1870 l-5 1830 -27
73 c-39 106 -83 177 -163 257 -78 78 -151 125 -253 163 -90 33 -275 42 -372
18 -222 -55 -396 -215 -483 -443 l-22 -58 -5 -2365 -5 -2365 -24 -48 c-85
-171 -326 -184 -426 -23 l-30 49 -3 498 -3 498 -212 122 c-116 67 -240 140
-275 161 -35 21 -226 133 -425 249 -199 116 -425 253 -503 304 -335 222 -461
407 -516 757 -16 103 -14 2312 2 2556 32 471 139 632 605 914 128 78 951 547
978 558 35 14 109 11 160 -6z m16508 -909 c331 -44 622 -167 864 -365 95 -78
249 -239 317 -330 286 -387 390 -898 287 -1405 -101 -496 -445 -942 -911
-1181 -511 -261 -1204 -240 -1691 52 -107 64 -243 172 -340 268 -253 251 -405
526 -479 866 -20 93 -22 133 -23 350 0 273 13 371 76 561 157 472 466 826 901
1034 174 82 371 139 548 158 91 10 356 5 451 -8z m-7741 -1725 l0 -1660 -182
2 -183 3 -3 1658 -2 1657 185 0 185 0 0 -1660z m2795 427 l1070 -1232 3 1232
2 1233 185 0 185 0 -2 -1657 -3 -1658 -50 -3 -50 -3 -1065 1222 -1065 1222 -3
-1222 -2 -1221 -188 2 -187 3 -3 1658 -2 1657 52 0 53 0 1070 -1233z m8635 30
c283 -661 524 -1221 535 -1245 l20 -43 542 1243 541 1243 202 3 c189 2 201 1
196 -15 -3 -10 -327 -756 -719 -1658 l-714 -1640 -50 -3 -49 -3 -697 1623
c-383 893 -703 1640 -712 1661 l-15 37 202 0 203 -1 515 -1202z m5592 -447
c422 -905 768 -1651 768 -1658 0 -10 -43 -12 -197 -10 l-197 3 -256 535 -256
535 -693 0 -693 0 -253 -535 -253 -535 -207 -3 c-164 -2 -206 0 -202 10 2 7
355 755 783 1661 l779 1648 55 -3 55 -3 767 -1645z m3648 1465 l0 -185 -365 0
-365 0 0 -1475 0 -1475 -187 2 -188 3 -3 1472 -2 1473 -363 2 -362 3 -3 183
-2 182 920 0 920 0 0 -185z m3260 0 l0 -185 -775 0 -775 0 2 -487 3 -488 768
-3 767 -2 0 -180 0 -180 -770 0 -770 0 0 -620 0 -620 770 0 770 0 -2 -182 -3
-183 -950 0 -950 0 -3 1658 -2 1657 960 0 960 0 0 -185z m-21180 -3945 c48
-24 78 -25 102 -3 17 15 19 15 38 -2 27 -25 25 -41 -9 -76 -37 -37 -76 -38
-139 -4 -57 30 -72 31 -106 4 l-26 -21 -20 24 c-11 12 -19 26 -20 29 0 4 16
21 35 38 43 37 87 41 145 11z m-2995 -161 c43 -6 88 -14 100 -19 22 -8 22 -12
13 -50 -11 -42 -11 -42 -47 -35 -190 35 -281 15 -281 -62 0 -38 41 -66 151
-103 147 -49 199 -100 199 -195 0 -66 -30 -118 -87 -152 -43 -25 -59 -28 -153
-31 -59 -1 -131 3 -165 10 -59 13 -60 14 -59 46 3 60 5 61 81 46 84 -16 170
-18 212 -3 32 11 61 52 61 88 0 29 -52 67 -127 91 -165 55 -223 107 -223 202
0 83 47 140 137 164 61 16 93 17 188 3z m665 -27 c98 -50 148 -168 137 -327
-10 -146 -60 -232 -159 -275 -75 -32 -194 -26 -262 14 -87 51 -130 152 -130
301 1 172 71 282 201 315 61 15 151 3 213 -28z m1815 27 c32 -6 76 -17 96 -25
36 -15 37 -15 27 -55 -12 -44 -14 -45 -82 -24 -63 19 -159 19 -195 0 -74 -38
-106 -115 -99 -240 5 -94 26 -145 76 -183 32 -24 43 -27 116 -26 49 1 99 8
125 18 24 9 46 14 48 12 3 -2 7 -22 10 -44 5 -35 3 -40 -23 -50 -46 -18 -107
-32 -136 -32 -39 0 -37 -32 2 -47 79 -30 44 -143 -45 -143 -54 0 -76 11 -73
34 2 16 10 21 33 21 60 1 74 34 25 60 -25 13 -29 19 -23 45 5 25 2 30 -14 30
-48 0 -113 33 -157 80 -62 66 -79 129 -74 269 3 94 7 113 33 166 36 71 82 109
155 129 68 18 100 19 175 5z m624 -15 c57 -22 117 -94 138 -163 23 -73 22
-228 -1 -291 -45 -121 -112 -171 -241 -178 -100 -5 -167 19 -220 81 -53 62
-70 123 -70 252 0 93 4 118 23 160 25 55 72 109 114 131 70 36 178 40 257 8z
m1234 5 l59 -12 -7 -36 c-4 -20 -10 -40 -15 -44 -4 -5 -32 -4 -62 2 -30 7 -85
12 -123 12 -84 1 -118 -20 -123 -73 -4 -47 23 -68 131 -104 45 -15 98 -35 118
-45 142 -71 123 -272 -29 -324 -54 -18 -175 -20 -274 -3 l-70 11 5 44 c2 24 6
46 8 47 2 2 36 -3 74 -11 39 -8 103 -13 142 -11 63 3 77 7 100 30 36 37 36 84
-1 113 -15 12 -64 35 -109 50 -146 49 -190 84 -208 162 -22 101 42 184 161
207 36 7 155 -1 223 -15z m3665 -12 c58 -29 107 -91 128 -164 23 -80 16 -240
-15 -309 -45 -102 -128 -154 -246 -154 -118 0 -200 51 -247 154 -20 45 -23 67
-23 177 0 120 1 128 30 184 36 69 86 113 152 131 66 19 162 11 221 -19z m708
5 c63 -19 64 -23 49 -88 -5 -21 -6 -21 -47 -6 -26 10 -77 16 -130 16 -103 1
-129 -13 -168 -90 -21 -41 -25 -63 -25 -139 0 -77 4 -98 25 -140 30 -59 90
-95 155 -95 38 0 131 19 167 35 13 5 19 -1 27 -32 6 -21 11 -41 11 -45 0 -3
-24 -15 -52 -25 -80 -27 -249 -26 -303 4 -106 57 -152 165 -143 335 12 202
122 307 309 293 36 -3 92 -13 125 -23z m1127 7 l59 -12 -7 -36 c-4 -20 -10
-40 -15 -44 -4 -5 -32 -4 -62 2 -76 16 -179 16 -208 1 -33 -17 -40 -29 -40
-67 0 -43 30 -65 143 -102 51 -17 107 -40 125 -51 122 -75 95 -266 -45 -314
-56 -19 -188 -21 -280 -4 l-65 12 5 43 c2 24 6 46 8 47 2 2 36 -3 74 -11 39
-8 102 -13 142 -11 89 4 123 29 123 89 0 48 -24 66 -145 108 -141 50 -181 84
-199 168 -17 78 50 175 131 188 21 4 43 8 48 11 16 6 144 -4 208 -17z m512 10
c43 -6 88 -14 100 -19 22 -8 22 -12 13 -50 -11 -41 -11 -42 -47 -35 -183 36
-281 15 -281 -62 0 -37 36 -62 151 -103 58 -20 119 -47 137 -60 95 -70 80
-230 -28 -290 -39 -21 -60 -25 -150 -27 -59 -2 -131 2 -165 9 l-60 13 3 35 c4
59 4 58 79 44 138 -27 237 -14 263 35 31 59 -8 105 -117 141 -167 55 -223 108
-223 208 0 77 50 134 137 158 61 16 93 17 188 3z m652 -19 c108 -48 159 -159
151 -329 -6 -119 -32 -185 -94 -240 -51 -44 -100 -61 -180 -61 -185 0 -277
112 -276 334 1 217 109 335 295 321 33 -3 79 -14 104 -25z m629 15 c48 -9 90
-18 93 -20 8 -9 -20 -85 -32 -85 -7 0 -31 5 -55 10 -64 15 -174 15 -202 0 -33
-17 -40 -29 -40 -67 0 -43 30 -65 143 -102 51 -17 107 -40 125 -51 89 -54 104
-181 31 -264 -41 -47 -102 -66 -213 -66 -92 1 -207 19 -206 33 0 4 0 19 0 35
0 47 8 51 80 36 162 -34 262 -8 268 69 4 52 -25 76 -143 116 -52 18 -113 46
-134 61 -92 67 -89 212 6 271 63 39 149 46 279 24z m5827 -6 l59 -12 -7 -36
c-4 -20 -10 -40 -15 -44 -4 -5 -32 -4 -62 2 -30 7 -85 12 -123 12 -84 1 -118
-20 -123 -73 -4 -47 23 -68 131 -104 154 -50 200 -88 213 -169 13 -87 -38
-169 -125 -200 -52 -18 -174 -20 -273 -3 l-70 11 5 44 c2 24 6 46 8 47 2 2 36
-3 74 -11 39 -8 103 -13 142 -11 62 3 77 7 99 29 16 17 26 37 26 59 1 44 -31
69 -135 105 -143 49 -187 82 -207 157 -28 100 39 188 160 212 36 7 155 -1 223
-15z m3843 6 c48 -9 90 -18 93 -20 8 -9 -20 -85 -32 -85 -7 0 -31 5 -55 10
-64 15 -174 15 -202 0 -33 -17 -40 -29 -40 -67 0 -43 30 -65 143 -102 51 -17
107 -40 125 -51 89 -54 104 -181 31 -264 -41 -47 -102 -66 -213 -66 -92 1
-207 19 -206 33 0 4 0 19 0 35 0 47 8 51 80 36 162 -34 262 -8 268 69 4 51
-25 76 -133 112 -120 39 -171 74 -197 132 -33 75 -9 162 56 202 66 41 150 49
282 26z m2957 -6 l59 -12 -7 -36 c-4 -20 -10 -40 -15 -44 -4 -5 -32 -4 -62 2
-30 7 -85 12 -123 12 -84 1 -118 -20 -123 -73 -4 -47 23 -68 131 -104 154 -50
200 -88 213 -169 13 -87 -38 -169 -125 -200 -53 -18 -187 -20 -278 -3 l-65 12
5 43 c2 24 6 46 8 47 2 2 36 -3 74 -11 39 -8 102 -13 142 -11 89 4 123 29 123
89 0 48 -24 66 -145 108 -139 49 -179 82 -199 163 -16 70 39 166 108 187 72
23 167 22 279 0z m-23193 -264 l0 -275 150 0 150 0 0 -45 0 -45 -205 0 -205 0
0 320 0 320 55 0 55 0 0 -275z m520 30 c5 -264 8 -277 65 -301 67 -28 160 -9
187 38 9 17 14 89 18 263 l5 240 55 0 55 0 0 -235 c0 -247 -5 -282 -47 -336
-58 -73 -229 -99 -333 -50 -107 50 -118 81 -123 369 -2 125 -1 234 2 243 4 11
18 14 58 12 l53 -3 5 -240z m2240 195 l0 -50 -155 0 -155 0 0 -80 0 -80 135 0
135 0 0 -50 0 -50 -135 0 -135 0 0 -95 0 -95 160 0 160 0 0 -45 0 -45 -215 0
-215 0 0 320 0 320 210 0 210 0 0 -50z m1380 0 l0 -50 -155 0 -155 0 0 -80 0
-80 135 0 135 0 0 -50 0 -50 -135 0 -135 0 0 -95 0 -95 160 0 160 0 0 -45 0
-45 -215 0 -215 0 0 320 0 320 210 0 210 0 0 -50z m375 -147 c49 -105 92 -189
95 -187 2 3 43 89 91 192 l86 187 71 3 72 3 0 -321 0 -320 -55 0 -55 0 -1 233
-1 232 -89 -183 -89 -183 -40 3 -40 3 -83 172 c-46 95 -86 175 -88 177 -2 2
-2 -99 0 -225 l3 -229 -56 0 -56 0 0 313 c0 173 3 317 7 321 4 4 36 6 72 4
l65 -3 91 -192z m1198 164 c141 -83 115 -313 -40 -356 -21 -6 -82 -11 -135
-11 l-98 0 0 -120 0 -120 -55 0 -55 0 0 321 0 321 168 -4 c162 -3 168 -4 215
-31z m597 3 c63 -35 95 -95 94 -175 -1 -83 -29 -131 -107 -180 -14 -9 -6 -27
58 -132 l74 -123 -64 0 -64 0 -71 120 -71 120 -60 0 -59 0 0 -120 0 -120 -55
0 -55 0 0 321 0 321 168 -4 c157 -3 170 -5 212 -28z m1950 -20 l0 -50 -155 0
-155 0 0 -80 0 -79 133 -3 132 -3 3 -47 3 -48 -135 0 -136 0 0 -95 0 -95 160
0 160 0 0 -45 0 -45 -215 0 -215 0 0 320 0 320 210 0 210 0 0 -50z m3208 -262
c56 -172 102 -316 102 -320 0 -5 -24 -8 -54 -8 l-54 0 -27 80 -27 81 -116 -3
-116 -3 -25 -77 -25 -78 -53 0 c-29 0 -53 3 -53 8 0 6 188 575 205 620 3 8 27
12 73 12 l68 0 102 -312z m457 115 c49 -105 92 -189 95 -187 2 3 43 89 91 192
l86 187 71 3 72 3 0 -321 0 -320 -55 0 -55 0 -1 233 -1 232 -89 -183 -89 -183
-40 3 -40 3 -84 173 c-46 96 -86 175 -88 177 -2 2 -1 -100 1 -226 l3 -229 -56
0 -56 0 0 313 c0 173 3 317 7 321 4 4 36 6 72 4 l65 -3 91 -192z m964 167
c100 -57 109 -200 16 -263 -36 -24 -36 -25 -12 -31 34 -8 85 -69 93 -111 14
-78 -22 -155 -89 -185 -36 -17 -66 -20 -219 -20 l-178 0 0 313 c0 173 3 317 8
321 4 4 81 6 172 4 154 -3 168 -5 209 -28z m351 -290 l0 -320 -60 0 -60 0 0
313 c0 173 3 317 7 320 3 4 30 7 60 7 l53 0 0 -320z m580 270 l0 -50 -155 0
-155 0 0 -80 0 -79 133 -3 132 -3 3 -47 3 -48 -135 0 -136 0 0 -95 0 -95 160
0 160 0 0 -45 0 -45 -215 0 -215 0 0 320 0 320 210 0 210 0 0 -50z m395 -174
l150 -224 3 224 2 224 50 0 50 0 0 -320 0 -320 -55 0 -55 0 -122 183 c-67 100
-134 199 -149 219 l-27 38 6 -220 5 -220 -57 0 -56 0 0 320 0 320 53 0 52 -1
150 -223z m845 174 l0 -50 -90 0 -90 0 0 -270 0 -270 -55 0 -55 0 0 270 0 269
-87 3 -88 3 -3 33 c-6 64 -15 62 238 62 l230 0 0 -50z m467 -265 c57 -170 103
-313 103 -318 0 -4 -26 -7 -57 -5 l-57 3 -25 78 -25 78 -116 -3 -115 -3 -26
-75 -26 -75 -57 -3 -56 -3 101 298 c56 164 105 308 110 321 8 21 14 23 76 20
l66 -3 104 -310z m333 -5 l0 -320 -55 0 -55 0 0 320 0 320 55 0 55 0 0 -320z
m1400 270 l0 -50 -155 0 -155 0 0 -80 0 -80 135 0 135 0 0 -50 0 -50 -135 0
-135 0 0 -95 0 -95 160 0 160 0 0 -45 0 -45 -215 0 -215 0 0 320 0 320 210 0
210 0 0 -50z m490 -270 l0 -320 -55 0 -55 0 0 320 0 320 55 0 55 0 0 -320z
m420 95 c83 -124 152 -225 154 -225 3 0 4 100 3 223 l-2 222 53 3 52 3 0 -320
0 -321 -57 0 -58 1 -145 215 -145 216 -3 -216 -2 -216 -50 0 -50 0 0 320 0
320 50 0 50 0 150 -225z m775 201 c97 -42 146 -129 153 -272 7 -153 -36 -258
-127 -312 -44 -26 -53 -27 -213 -30 l-168 -4 0 322 0 322 158 -4 c121 -3 166
-8 197 -22z m407 -214 c3 -210 5 -241 21 -266 35 -52 126 -72 192 -40 60 28
65 54 65 313 l0 231 55 0 55 0 0 -243 c0 -242 0 -243 -26 -295 -37 -75 -90
-104 -199 -110 -133 -7 -202 25 -251 118 -17 31 -19 64 -22 283 l-4 247 55 0
55 0 4 -238z m1548 188 l0 -50 -85 0 -85 0 0 -270 0 -270 -60 0 -60 0 0 270 0
269 -87 3 -88 3 -3 33 c-6 64 -15 62 238 62 l230 0 0 -50z m495 28 c39 -21 81
-66 94 -101 18 -46 13 -133 -9 -177 -19 -37 -67 -80 -89 -80 -19 0 -13 -13 59
-134 39 -65 70 -120 70 -122 0 -2 -28 -4 -62 -4 l-63 0 -69 120 -70 120 -58 0
-58 0 0 -120 0 -120 -60 0 -60 0 0 313 c0 173 3 317 8 321 4 4 81 6 172 4 128
-3 172 -7 195 -20z m355 -298 l0 -320 -55 0 -55 0 0 320 0 320 55 0 55 0 0
-320z m577 5 c57 -170 103 -313 103 -318 0 -4 -26 -7 -57 -5 l-57 3 -25 78
-25 77 -116 0 -116 0 -25 -77 -25 -78 -57 -3 -57 -3 101 298 c56 163 105 308
110 321 8 21 14 23 76 20 l66 -3 104 -310z m333 -5 l0 -320 -55 0 -55 0 0 320
0 320 55 0 55 0 0 -320z"/>
<path d="M21180 7964 c-14 -2 -59 -9 -100 -15 -334 -49 -700 -285 -894 -576
-156 -235 -223 -446 -233 -738 -14 -416 109 -736 392 -1020 209 -210 438 -332
719 -382 135 -24 371 -21 509 6 571 114 990 545 1082 1116 20 121 19 366 -1
486 -73 428 -340 784 -739 982 -191 95 -359 137 -575 142 -74 2 -146 2 -160
-1z"/>
<path d="M29961 7383 c-23 -48 -140 -295 -260 -548 l-217 -460 264 -3 c145 -1
380 -1 522 0 l258 3 -255 540 c-140 297 -258 544 -262 548 -5 5 -27 -31 -50
-80z"/>
<path d="M14024 3860 c-32 -13 -72 -66 -85 -112 -16 -62 -8 -215 15 -261 28
-57 70 -82 138 -82 70 0 103 22 138 91 22 42 25 62 25 144 -1 159 -50 231
-160 229 -27 0 -59 -4 -71 -9z"/>
<path d="M16464 3851 c-18 -11 -42 -40 -55 -68 -20 -40 -24 -64 -24 -143 0
-81 4 -102 25 -144 35 -70 68 -91 140 -91 110 0 153 60 158 223 4 95 2 107
-22 156 -19 38 -36 59 -60 70 -47 22 -123 21 -162 -3z"/>
<path d="M21349 3847 c-57 -38 -74 -86 -74 -207 0 -93 3 -111 25 -154 42 -81
119 -106 206 -67 31 14 47 30 65 67 21 42 24 63 24 154 0 120 -17 168 -75 208
-46 31 -124 31 -171 -1z"/>
<path d="M24374 3860 c-32 -13 -72 -66 -85 -113 -6 -23 -9 -82 -7 -132 6 -137
48 -200 138 -212 88 -12 160 45 180 144 26 124 -7 263 -72 303 -35 21 -114 26
-154 10z"/>
<path d="M20070 3755 l0 -105 80 0 c130 0 170 26 170 113 0 35 -6 50 -26 71
-25 25 -32 26 -125 26 l-99 0 0 -105z"/>
<path d="M20670 3755 l0 -105 80 0 c88 0 142 16 159 48 6 12 11 41 11 67 0 35
-6 51 -25 70 -22 23 -31 25 -125 25 l-100 0 0 -105z"/>
<path d="M25876 3712 c-26 -79 -46 -145 -43 -148 2 -3 45 -3 94 -2 l90 3 -47
145 -46 145 -48 -143z"/>
<path d="M27250 3775 l0 -85 85 0 c46 0 95 5 108 11 50 23 62 95 22 134 -22
23 -32 25 -120 25 l-95 0 0 -85z"/>
<path d="M27250 3504 l0 -96 104 4 c85 2 108 6 125 22 29 26 36 77 17 114 -20
39 -63 52 -168 52 l-78 0 0 -96z"/>
<path d="M29978 3835 c-13 -22 -90 -267 -85 -271 2 -3 45 -3 94 -2 l90 3 -47
140 c-25 76 -49 135 -52 130z"/>
<path d="M33330 3636 l0 -226 83 0 c101 0 142 18 175 79 52 93 37 274 -28 336
-30 29 -36 30 -131 33 l-99 4 0 -226z"/>
<path d="M35770 3755 l0 -105 73 0 c99 0 143 14 162 50 27 51 16 116 -24 147
-10 8 -53 12 -113 13 l-98 0 0 -105z"/>
<path d="M36778 3835 c-13 -22 -90 -267 -85 -271 2 -3 45 -3 94 -2 l90 3 -47
140 c-25 76 -49 135 -52 130z"/>
</g>
</svg>
